# This file uses centimeters as units for non-parametric coordinates.

mtllib Crate.mtl
g default
v -0.672917 0.750000 -0.701988
v 0.667982 0.750000 -0.701988
v 0.667982 -0.750000 -0.701988
v -0.672917 -0.750000 -0.701988
v -0.672917 0.750000 0.657566
v 0.667982 0.750000 0.657566
v 0.667981 -0.750000 0.657566
v -0.672917 -0.750000 0.657566
v -0.672917 0.655303 0.750000
v 0.667982 0.655303 0.750000
v 0.750000 0.655303 0.657566
v 0.750000 0.655303 -0.701988
v 0.750000 0.655303 -0.750000
v 0.667982 0.655303 -0.750000
v -0.672917 0.655303 -0.750000
v -0.750000 0.655303 -0.701988
v -0.750000 0.655303 0.657566
v -0.672917 -0.648879 0.750000
v 0.667982 -0.648879 0.750000
v 0.750000 -0.648879 0.657566
v 0.750000 -0.648879 -0.701988
v 0.750000 -0.648879 -0.750000
v 0.667982 -0.648879 -0.750000
v -0.672917 -0.648879 -0.750000
v -0.750000 -0.648879 -0.701988
v -0.750000 -0.648879 0.657566
v 0.694273 0.779520 0.779520
v 0.694273 0.681096 0.779520
v 0.779520 0.681096 0.779520
v 0.779520 0.779520 0.779520
v 0.694273 0.779520 -0.779520
v 0.694273 0.779520 -0.729618
v 0.779520 0.779520 -0.729618
v 0.779520 0.779520 -0.779520
v 0.779520 0.681096 -0.779520
v 0.694273 0.681096 -0.779520
v 0.779520 -0.779520 -0.729618
v 0.694273 -0.779520 -0.729618
v 0.694273 -0.779520 -0.779520
v 0.779520 -0.779520 -0.779520
v 0.779520 0.681096 -0.729618
v -0.779520 0.681096 -0.779520
v -0.779520 0.681096 -0.729618
v -0.779520 0.779520 -0.729618
v -0.779520 0.779520 -0.779520
v -0.699403 -0.779520 -0.729618
v -0.699403 -0.779520 -0.779520
v -0.699403 0.681096 -0.779520
v -0.699403 0.779520 -0.779520
v -0.699403 0.779520 -0.729618
v -0.699403 0.779520 0.779520
v -0.699403 0.681096 0.779520
v -0.779520 -0.779520 -0.779520
v -0.779520 -0.779520 -0.729618
v -0.779520 0.681096 0.779520
v -0.779520 0.779520 0.779520
v -0.779520 0.779520 0.683448
v -0.699403 0.779520 0.683448
v 0.694273 0.779520 0.683448
v 0.779520 0.779520 0.683448
v 0.779520 0.681096 0.683448
v 0.779520 -0.779520 0.683448
v 0.694273 -0.779520 0.683448
v -0.699403 -0.779520 0.683448
v -0.779520 -0.779520 0.683448
v -0.779520 0.681096 0.683448
v 0.694273 -0.779520 0.779520
v 0.779520 -0.779520 0.779520
v -0.699403 -0.779520 0.779520
v -0.779520 -0.779520 0.779520
v -0.779520 -0.674419 0.779520
v -0.699403 -0.674418 0.779520
v 0.694273 -0.674418 0.779520
v 0.779520 -0.674419 0.779520
v 0.779520 -0.674418 0.683448
v 0.779520 -0.674418 -0.729618
v 0.779520 -0.674418 -0.779520
v -0.699403 -0.674419 -0.779520
v -0.779520 -0.674418 -0.779520
v -0.779520 -0.674419 -0.729618
v -0.779520 -0.674419 0.683448
v 0.694273 -0.674419 -0.779520
vt 0.386781 0.047124
vt 0.613219 0.047124
vt 0.386781 0.273562
vt 0.613219 0.273562
vt 0.386781 0.500000
vt 0.613219 0.500000
vt 0.386781 0.726438
vt 0.613219 0.726438
vt 0.386781 0.952876
vt 0.613219 0.952876
vt 0.839657 0.047124
vt 0.839657 0.273562
vt 0.160343 0.047124
vt 0.160343 0.273562
vt 0.600838 0.047124
vt 0.600838 0.952876
vt 0.600838 0.726438
vt 0.600838 0.500000
vt 0.600838 0.273562
vt 0.398417 0.047124
vt 0.398417 0.952876
vt 0.398417 0.726438
vt 0.398417 0.500000
vt 0.398417 0.273562
vt 0.167591 0.273562
vt 0.386781 0.492752
vt 0.398417 0.492752
vt 0.600838 0.492752
vt 0.613219 0.492752
vt 0.832409 0.273562
vt 0.613219 0.733686
vt 0.832409 0.047124
vt 0.600838 0.733686
vt 0.398417 0.733686
vt 0.167591 0.047124
vt 0.386781 0.733686
vt 0.372827 0.273562
vt 0.386781 0.287516
vt 0.398417 0.287516
vt 0.600838 0.287516
vt 0.613219 0.287516
vt 0.627173 0.273562
vt 0.613219 0.938922
vt 0.627173 0.047124
vt 0.600838 0.938922
vt 0.398417 0.938922
vt 0.372827 0.047124
vt 0.386781 0.938922
vt 0.386781 0.259267
vt 0.398417 0.259267
vt 0.600838 0.259267
vt 0.613219 0.259267
vt 0.627173 0.259267
vt 0.832409 0.259267
vt 0.613219 0.514295
vt 0.839657 0.259267
vt 0.600838 0.514295
vt 0.398417 0.514295
vt 0.160343 0.259267
vt 0.386781 0.514295
vt 0.167591 0.259267
vt 0.372827 0.259267
vt 0.386781 0.062389
vt 0.398417 0.062389
vt 0.600838 0.062389
vt 0.613219 0.062389
vt 0.627173 0.062389
vt 0.832409 0.062389
vt 0.613219 0.711173
vt 0.839657 0.062389
vt 0.600838 0.711173
vt 0.398417 0.711173
vt 0.160343 0.062389
vt 0.386781 0.711173
vt 0.167591 0.062389
vt 0.372827 0.062389
vt 0.613219 0.514295
vt 0.600838 0.514295
vt 0.600838 0.733686
vt 0.398417 0.733686
vt 0.398417 0.514295
vt 0.398417 0.492752
vt 0.600838 0.492752
vt 0.398417 0.259267
vt 0.600838 0.259267
vt 0.398417 0.287516
vt 0.600838 0.287516
vt 0.627173 0.259267
vt 0.832409 0.259267
vt 0.600838 0.938922
vt 0.398417 0.938922
vt 0.167591 0.259267
vt 0.372827 0.259267
vt 0.398417 0.062389
vt 0.600838 0.062389
vt 0.627173 0.062389
vt 0.832409 0.062389
vt 0.839657 0.062389
vt 0.839657 0.259267
vt 0.398417 0.711173
vt 0.167591 0.062389
vt 0.372827 0.062389
vt 0.600838 0.711173
vt 0.613219 0.711173
vn 0.000000 0.000000 1.000000
vn 0.000001 0.000000 1.000000
vn 0.000002 0.000000 1.000000
vn -0.000001 0.000000 1.000000
vn 0.000000 1.000000 0.000000
vn 0.000000 1.000000 0.000000
vn 0.000000 1.000000 0.000000
vn 0.000000 1.000000 0.000000
vn 0.000001 0.000000 -1.000000
vn 0.000000 0.000000 -1.000000
vn 0.000000 0.000000 -1.000000
vn 0.000001 0.000000 -1.000000
vn 0.000000 -1.000000 -0.000000
vn 0.000000 -1.000000 -0.000000
vn 0.000000 -1.000000 0.000000
vn 0.000000 -1.000000 0.000000
vn 1.000000 0.000000 0.000000
vn 1.000000 0.000000 0.000000
vn 1.000000 0.000000 0.000000
vn 1.000000 0.000001 0.000000
vn -1.000000 0.000000 0.000000
vn -1.000000 0.000000 0.000000
vn -1.000000 0.000000 0.000000
vn -1.000000 0.000000 0.000000
vn 0.000000 -1.000000 0.000000
vn 0.000000 -1.000000 0.000000
vn 0.000001 0.000000 -1.000000
vn -0.000000 0.000000 -1.000000
vn 0.000000 1.000000 -0.000000
vn 0.000000 1.000000 -0.000000
vn 0.000000 0.000000 1.000000
vn -0.000001 -0.000000 1.000000
vn 0.000000 -1.000000 0.000000
vn 0.000000 -1.000000 0.000000
vn -0.000001 0.000000 -1.000000
vn 0.000002 0.000000 -1.000000
vn 0.000000 1.000000 -0.000000
vn 0.000000 1.000000 -0.000001
vn -0.000002 -0.000000 1.000000
vn 0.000000 0.000000 1.000000
vn 0.000000 1.000000 0.000000
vn 0.000000 1.000000 0.000000
vn 0.000000 1.000000 0.000000
vn 0.000000 1.000000 0.000000
vn 0.000000 1.000000 0.000000
vn 0.000000 1.000000 0.000000
vn 0.000000 1.000000 0.000000
vn 0.000000 1.000000 0.000000
vn 1.000000 0.000000 0.000000
vn 1.000000 0.000000 0.000000
vn 0.000000 -1.000000 0.000000
vn 0.000000 -1.000000 -0.000000
vn 0.000000 -1.000000 -0.000000
vn 0.000000 -1.000000 -0.000000
vn 0.000000 -1.000000 -0.000000
vn 0.000000 -1.000000 -0.000000
vn 0.000000 -1.000000 0.000000
vn 0.000000 -1.000000 0.000000
vn -1.000000 0.000000 0.000000
vn -1.000000 0.000000 0.000000
vn 0.000000 1.000000 0.000000
vn 0.000000 1.000000 0.000000
vn 0.000000 1.000000 0.000000
vn 0.000000 1.000000 0.000000
vn 1.000000 0.000000 0.000000
vn 1.000000 0.000000 0.000000
vn 0.000000 -1.000000 0.000000
vn 0.000000 -1.000000 0.000001
vn 0.000000 -1.000000 0.000000
vn 0.000000 -1.000000 0.000000
vn -1.000000 0.000000 0.000000
vn -1.000000 0.000000 0.000000
vn -0.000002 -0.000000 1.000000
vn -0.000001 -0.000000 1.000000
vn 0.000000 0.000000 1.000000
vn 0.000000 0.000000 1.000000
vn 0.000000 0.000000 1.000000
vn 0.000000 0.000000 1.000000
vn 0.000001 0.000000 1.000000
vn 0.000002 0.000000 1.000000
vn 1.000000 0.000000 0.000000
vn 1.000000 0.000000 0.000000
vn 1.000000 0.000000 0.000000
vn 1.000000 0.000000 0.000000
vn 1.000000 0.000000 0.000000
vn 1.000000 0.000000 0.000000
vn 1.000000 0.000000 0.000000
vn 1.000000 0.000000 0.000000
vn 0.000001 0.000000 -1.000000
vn 0.000000 0.000000 -1.000000
vn 0.000000 0.000000 -1.000000
vn 0.000001 0.000000 -1.000000
vn 0.000000 0.000000 -1.000000
vn 0.000000 0.000000 -1.000000
vn 0.000001 0.000000 -1.000000
vn 0.000002 0.000000 -1.000000
vn -1.000000 0.000000 0.000000
vn -1.000000 0.000000 0.000000
vn -1.000000 0.000000 0.000000
vn -1.000000 0.000000 0.000000
vn -1.000000 0.000000 0.000000
vn -1.000000 0.000000 0.000000
vn -1.000000 0.000000 0.000000
vn -1.000000 0.000000 0.000000
vn 0.000000 0.000000 1.000000
vn 0.000000 0.000000 1.000000
vn 0.000000 0.000000 1.000000
vn 0.000000 0.000000 1.000000
vn 1.000000 0.000000 0.000000
vn 1.000000 0.000000 0.000000
vn 1.000000 0.000000 0.000000
vn 1.000000 0.000000 0.000000
vn 0.000000 0.000000 -1.000000
vn 0.000000 0.000000 -1.000000
vn 0.000000 0.000000 -1.000000
vn 0.000000 0.000000 -1.000000
vn 0.000000 0.000000 -1.000000
vn 0.000000 0.000000 -1.000000
vn -1.000000 0.000001 0.000000
vn -1.000000 0.000000 0.000000
vn -1.000000 0.000000 0.000000
vn -1.000000 0.000000 0.000000
vn -0.000002 -0.753047 -0.657967
vn -0.000002 -0.753047 -0.657967
vn -0.000002 -0.753047 -0.657967
vn -0.000002 -0.753047 -0.657967
vn 0.000000 -0.683351 0.730090
vn 0.000000 -0.683351 0.730090
vn 0.000000 -0.683351 0.730090
vn 0.000000 -0.683351 0.730090
vn 0.000000 -0.753048 -0.657966
vn 0.000000 -0.753048 -0.657966
vn 0.000000 -0.753048 -0.657966
vn 0.000000 -0.753048 -0.657966
vn 0.000000 0.683352 0.730089
vn 0.000000 0.683352 0.730089
vn 0.000000 0.683352 0.730089
vn 0.000000 0.683352 0.730089
vn 0.000000 -0.753047 0.657967
vn 0.000000 -0.753047 0.657967
vn 0.000000 -0.753047 0.657967
vn 0.000000 -0.753047 0.657967
vn 0.744322 0.667821 0.000000
vn 0.744322 0.667821 0.000000
vn 0.744322 0.667821 0.000000
vn 0.744322 0.667821 0.000000
vn -0.746759 0.665095 -0.000000
vn -0.746759 0.665095 -0.000000
vn -0.746759 0.665095 -0.000000
vn -0.746759 0.665095 -0.000000
vn 0.657966 -0.753048 0.000000
vn 0.657966 -0.753048 0.000000
vn 0.657966 -0.753048 0.000000
vn 0.657966 -0.753048 0.000000
vn -0.746759 -0.665094 -0.000000
vn -0.746759 -0.665094 -0.000000
vn -0.746759 -0.665094 -0.000000
vn -0.746759 -0.665094 -0.000000
vn 0.744321 -0.667822 0.000000
vn 0.744321 -0.667822 0.000000
vn 0.744321 -0.667822 0.000000
vn 0.744321 -0.667822 0.000000
vn -0.657968 -0.753046 0.000000
vn -0.657967 -0.753046 0.000000
vn -0.657967 -0.753046 0.000000
vn -0.657967 -0.753047 0.000000
vn 0.000000 0.659251 -0.751923
vn 0.000000 0.659251 -0.751923
vn 0.000000 0.659251 -0.751923
vn 0.000000 0.659251 -0.751923
vn 0.000000 -0.659251 -0.751923
vn 0.000000 -0.659251 -0.751923
vn 0.000000 -0.659251 -0.751923
vn 0.000000 -0.659251 -0.751923
vn 0.744322 0.000000 0.667821
vn 0.744322 0.000000 0.667821
vn 0.744322 0.000000 0.667821
vn 0.744322 0.000000 0.667821
vn -0.746760 0.000000 0.665094
vn -0.746760 0.000000 0.665094
vn -0.746760 0.000000 0.665094
vn -0.746760 0.000000 0.665094
vn 0.659253 0.000000 -0.751921
vn 0.659253 0.000000 -0.751921
vn 0.659253 0.000000 -0.751921
vn 0.659253 0.000000 -0.751921
vn 0.683352 0.000000 0.730089
vn 0.683352 0.000000 0.730089
vn 0.683352 0.000000 0.730089
vn 0.683352 0.000000 0.730089
vn -0.707108 0.000000 -0.707106
vn -0.707108 0.000000 -0.707106
vn -0.707108 0.000000 -0.707106
vn -0.707108 0.000000 -0.707106
vn 0.744320 -0.000000 -0.667823
vn 0.744320 -0.000000 -0.667823
vn 0.744320 -0.000000 -0.667823
vn 0.744320 -0.000000 -0.667823
vn -0.683352 0.000000 0.730089
vn -0.683352 0.000000 0.730089
vn -0.683352 0.000000 0.730089
vn -0.683352 0.000000 0.730089
vn -0.659252 0.000000 -0.751922
vn -0.659252 0.000000 -0.751922
vn -0.659252 0.000000 -0.751922
vn -0.659252 0.000000 -0.751922
vn 0.000000 0.756248 0.654286
vn 0.000000 0.756248 0.654286
vn 0.000000 0.756248 0.654286
vn 0.000000 0.756248 0.654286
vn 0.654285 0.756248 0.000000
vn 0.654285 0.756248 0.000000
vn 0.654285 0.756248 0.000000
vn 0.654285 0.756248 0.000000
vn -0.000005 0.756246 -0.654288
vn -0.000005 0.756246 -0.654288
vn -0.000005 0.756246 -0.654288
vn -0.000005 0.756246 -0.654288
vn 0.000000 0.756248 -0.654285
vn 0.000000 0.756248 -0.654285
vn 0.000000 0.756248 -0.654285
vn 0.000000 0.756249 -0.654285
vn -0.654286 0.756247 0.000000
vn -0.654286 0.756247 0.000000
vn -0.654286 0.756247 0.000000
vn -0.654286 0.756247 0.000000
s 1
g pCube1
usemtl initialShadingGroup
f 27/19/1 28/85/2 29/52/3 30/4/4
s 2
f 31/18/5 32/83/6 33/29/7 34/6/8
s 3
f 35/77/9 36/78/10 31/18/11 34/6/12
s 4
f 37/31/13 38/79/14 39/17/15 40/8/16
s 5
f 33/30/17 41/89/18 35/99/19 34/12/20
s 6
f 42/59/21 43/92/22 44/25/23 45/14/24
s 4
f 38/79/14 46/80/25 47/22/26 39/17/15
s 3
f 36/78/10 48/81/27 49/23/28 31/18/11
s 2
f 49/23/29 50/82/30 32/83/6 31/18/5
s 1
f 51/24/31 52/84/32 28/85/2 27/19/1
s 4
f 53/7/33 47/22/26 46/80/25 54/36/34
s 3
f 45/5/35 49/23/28 48/81/27 42/60/36
s 2
f 44/26/37 50/82/30 49/23/29 45/5/38
s 1
f 55/49/39 52/84/32 51/24/31 56/3/40
s 2
f 57/38/41 58/86/42 50/82/30 44/26/37
s off
f 2/28/43 1/27/44 5/39/45 6/40/46
s 2
f 33/29/7 32/83/6 59/87/47 60/41/48
s 5
f 60/42/49 61/88/50 41/89/18 33/30/17
s 4
f 62/43/51 63/90/52 38/79/14 37/31/13
s off
f 7/45/53 8/46/54 4/34/55 3/33/56
s 4
f 54/36/34 46/80/25 64/91/57 65/48/58
s 6
f 44/25/23 43/92/22 66/93/59 57/37/60
s 2
f 56/3/61 51/24/62 58/86/42 57/38/41
f 59/87/47 58/86/42 51/24/62 27/19/63
f 60/41/48 59/87/47 27/19/63 30/4/64
s 5
f 29/52/65 61/88/50 60/42/49 30/4/66
s 4
f 67/16/67 63/90/52 62/43/51 68/10/68
f 69/21/69 64/91/57 63/90/52 67/16/67
f 65/48/58 64/91/57 69/21/69 70/9/70
s 6
f 57/37/60 66/93/59 55/49/71 56/3/72
s 1
f 71/63/73 72/94/74 52/84/32 55/49/39
s off
f 10/51/75 9/50/76 18/64/77 19/65/78
s 1
f 29/52/3 28/85/2 73/95/79 74/66/80
s 5
f 74/66/81 75/96/82 61/88/50 29/52/65
s off
f 12/54/83 11/53/84 20/67/85 21/68/86
s 5
f 35/99/19 41/89/18 76/97/87 77/98/88
s 7
f 22/69/89 23/71/90 14/57/91 13/55/92
f 23/71/90 24/72/93 15/58/94 14/57/91
s 3
f 42/60/36 48/81/27 78/100/95 79/74/96
s 6
f 79/73/97 80/101/98 43/92/22 42/59/21
s off
f 17/62/99 16/61/100 25/75/101 26/76/102
s 6
f 55/49/71 66/93/59 81/102/103 71/63/104
s 1
f 70/1/105 69/20/106 72/94/74 71/63/73
f 73/95/79 72/94/74 69/20/106 67/15/107
f 74/66/80 73/95/79 67/15/107 68/2/108
s 5
f 68/2/109 62/44/110 75/96/82 74/66/81
f 76/97/87 75/96/82 62/44/110 37/32/111
f 77/98/88 76/97/87 37/32/111 40/11/112
s 3
f 39/17/113 82/103/114 77/104/115 40/8/116
f 47/22/117 78/100/95 82/103/114 39/17/113
f 79/74/96 78/100/95 47/22/117 53/7/118
s 6
f 53/13/119 54/35/120 80/101/98 79/73/97
f 81/102/103 80/101/98 54/35/120 65/47/121
f 71/63/104 81/102/103 65/47/121 70/1/122
s off
f 13/55/123 14/57/124 36/78/125 35/77/126
f 3/33/127 4/34/128 46/80/129 38/79/130
f 14/57/131 15/58/132 48/81/133 36/78/134
f 1/27/135 2/28/136 32/83/137 50/82/138
f 9/50/139 10/51/140 28/85/141 52/84/142
f 5/39/143 1/27/144 50/82/145 58/86/146
f 2/28/147 6/40/148 59/87/149 32/83/150
f 11/53/151 12/54/152 41/89/153 61/88/154
f 7/45/155 3/33/156 38/79/157 63/90/158
f 4/34/159 8/46/160 64/91/161 46/80/162
f 16/61/163 17/62/164 66/93/165 43/92/166
f 6/40/167 5/39/168 58/86/169 59/87/170
f 8/46/171 7/45/172 63/90/173 64/91/174
f 18/64/175 9/50/176 52/84/177 72/94/178
f 10/51/179 19/65/180 73/95/181 28/85/182
f 20/67/183 11/53/184 61/88/185 75/96/186
f 12/54/187 21/68/188 76/97/189 41/89/190
f 22/70/191 13/56/192 35/99/193 77/98/194
f 15/58/195 24/72/196 78/100/197 48/81/198
f 25/75/199 16/61/200 43/92/201 80/101/202
f 17/62/203 26/76/204 81/102/205 66/93/206
f 19/65/207 18/64/208 72/94/209 73/95/210
f 21/68/211 20/67/212 75/96/213 76/97/214
f 23/71/215 22/69/216 77/104/217 82/103/218
f 24/72/219 23/71/220 82/103/221 78/100/222
f 26/76/223 25/75/224 80/101/225 81/102/226
