# This file uses centimeters as units for non-parametric coordinates.

mtllib FilingCabinet.mtl
g default
v -0.625000 -0.028686 0.650000
v 0.625000 -0.028686 0.650000
v -0.625000 4.971314 0.650000
v 0.625000 4.971314 0.650000
v -0.625000 4.971314 -0.650000
v 0.625000 4.971314 -0.650000
v -0.625000 -0.028686 -0.650000
v 0.625000 -0.028686 -0.650000
vt 0.464065 0.133350
vt 0.526524 0.133216
vt 0.464065 0.427267
vt 0.527068 0.427122
vt 0.463527 0.506018
vt 0.528452 0.505206
vt 0.466581 0.813356
vt 0.531967 0.812375
vt 0.467336 0.893501
vt 0.532940 0.892441
vt 0.591494 0.133047
vt 0.592065 0.426915
vt 0.399067 0.133354
vt 0.399067 0.427264
vn 0.000000 0.000000 1.000000
vn 0.000000 0.000000 1.000000
vn 0.000000 0.000000 1.000000
vn 0.000000 0.000000 1.000000
vn 0.000000 1.000000 0.000000
vn 0.000000 1.000000 0.000000
vn 0.000000 1.000000 0.000000
vn 0.000000 1.000000 0.000000
vn 0.000000 0.000000 -1.000000
vn 0.000000 0.000000 -1.000000
vn 0.000000 0.000000 -1.000000
vn 0.000000 0.000000 -1.000000
vn 0.000000 -1.000000 0.000000
vn 0.000000 -1.000000 0.000000
vn 0.000000 -1.000000 0.000000
vn 0.000000 -1.000000 0.000000
vn 1.000000 0.000000 0.000000
vn 1.000000 0.000000 0.000000
vn 1.000000 0.000000 0.000000
vn 1.000000 0.000000 0.000000
vn -1.000000 0.000000 0.000000
vn -1.000000 0.000000 0.000000
vn -1.000000 0.000000 0.000000
vn -1.000000 0.000000 0.000000
s off
g pCube1
usemtl initialShadingGroup
f 1/1/1 2/2/2 4/4/3 3/3/4
f 3/3/5 4/4/6 6/6/7 5/5/8
f 5/5/9 6/6/10 8/8/11 7/7/12
f 7/7/13 8/8/14 2/10/15 1/9/16
f 2/2/17 8/11/18 6/12/19 4/4/20
f 7/13/21 1/1/22 3/3/23 5/14/24
