# This file uses centimeters as units for non-parametric coordinates.

mtllib FilingCabinet.mtl
g default
v -0.625000 -0.028686 0.650000
v 0.625000 -0.028686 0.650000
v -0.625000 4.971314 0.650000
v 0.625000 4.971314 0.650000
v -0.625000 4.971314 -0.650000
v 0.625000 4.971314 -0.650000
v -0.625000 -0.028686 -0.650000
v 0.625000 -0.028686 -0.650000
vt 0.524918 0.859813
vt 0.670109 0.993611
vt 0.533097 0.138839
vt 0.352955 0.136510
vt 0.678269 0.183975
vt 0.165503 0.134100
vt 0.670953 0.818111
vt 0.809538 0.842490
vt 0.156652 0.855255
vt 0.817491 0.162861
vt 0.681765 0.008333
vt 0.344327 0.857622
vn 0.000000 0.000000 1.000000
vn 0.000000 0.000000 1.000000
vn 0.000000 0.000000 1.000000
vn 0.000000 0.000000 1.000000
vn 0.000000 1.000000 0.000000
vn 0.000000 1.000000 0.000000
vn 0.000000 1.000000 0.000000
vn 0.000000 1.000000 0.000000
vn 0.000000 0.000000 -1.000000
vn 0.000000 0.000000 -1.000000
vn 0.000000 0.000000 -1.000000
vn 0.000000 0.000000 -1.000000
vn 0.000000 -1.000000 0.000000
vn 0.000000 -1.000000 0.000000
vn 0.000000 -1.000000 0.000000
vn 0.000000 -1.000000 0.000000
vn 1.000000 0.000000 0.000000
vn 1.000000 0.000000 0.000000
vn 1.000000 0.000000 0.000000
vn 1.000000 0.000000 0.000000
vn -1.000000 0.000000 0.000000
vn -1.000000 0.000000 0.000000
vn -1.000000 0.000000 0.000000
vn -1.000000 0.000000 0.000000
s off
g pCube1
usemtl initialShadingGroup
f 1/1/1 2/12/2 4/4/3 3/3/4
f 3/3/5 4/11/6 6/10/7 5/5/8
f 5/5/9 6/10/10 8/8/11 7/7/12
f 7/7/13 8/8/14 2/2/15 1/1/16
f 2/12/17 8/9/18 6/6/19 4/4/20
f 7/7/21 1/1/22 3/3/23 5/5/24
