# This file uses centimeters as units for non-parametric coordinates.

mtllib Ladder.mtl
g default
v 0.987775 0.872339 0.125000
v 0.987775 1.122339 0.125000
v -1.012225 0.872339 0.125000
v -1.012225 1.122339 0.125000
v -1.012225 0.872339 -0.125000
v -1.012225 1.122339 -0.125000
v 0.987775 0.872339 -0.125000
v 0.987775 1.122339 -0.125000
v 0.987775 1.828680 0.125000
v 0.987775 2.078680 0.125000
v -1.012225 1.828680 0.125000
v -1.012225 2.078680 0.125000
v -1.012225 1.828680 -0.125000
v -1.012225 2.078680 -0.125000
v 0.987775 1.828680 -0.125000
v 0.987775 2.078680 -0.125000
v 0.987775 2.859541 0.125000
v 0.987775 3.109541 0.125000
v -1.012225 2.859541 0.125000
v -1.012225 3.109541 0.125000
v -1.012225 2.859541 -0.125000
v -1.012225 3.109541 -0.125000
v 0.987775 2.859541 -0.125000
v 0.987775 3.109541 -0.125000
v 0.987775 3.890401 0.125000
v 0.987775 4.140401 0.125000
v -1.012225 3.890401 0.125000
v -1.012225 4.140401 0.125000
v -1.012225 3.890401 -0.125000
v -1.012225 4.140401 -0.125000
v 0.987775 3.890401 -0.125000
v 0.987775 4.140401 -0.125000
v 0.987775 4.846742 0.125000
v 0.987775 5.096742 0.125000
v -1.012225 4.846742 0.125000
v -1.012225 5.096742 0.125000
v -1.012225 4.846742 -0.125000
v -1.012225 5.096742 -0.125000
v 0.987775 4.846742 -0.125000
v 0.987775 5.096742 -0.125000
v 0.987775 5.877603 0.125000
v 0.987775 6.127603 0.125000
v -1.012225 5.877603 0.125000
v -1.012225 6.127603 0.125000
v -1.012225 5.877603 -0.125000
v -1.012225 6.127603 -0.125000
v 0.987775 5.877603 -0.125000
v 0.987775 6.127603 -0.125000
v 0.987775 6.901274 0.125000
v 0.987775 7.151274 0.125000
v -1.012225 6.901274 0.125000
v -1.012225 7.151274 0.125000
v -1.012225 6.901274 -0.125000
v -1.012225 7.151274 -0.125000
v 0.987775 6.901274 -0.125000
v 0.987775 7.151274 -0.125000
v 0.987775 7.857615 0.125000
v 0.987775 8.107615 0.125000
v -1.012225 7.857615 0.125000
v -1.012225 8.107615 0.125000
v -1.012225 7.857615 -0.125000
v -1.012225 8.107615 -0.125000
v 0.987775 7.857615 -0.125000
v 0.987775 8.107615 -0.125000
v 0.944599 10.021422 -0.211202
v 1.194599 10.021422 -0.211202
v 0.944599 0.021422 -0.211202
v 1.194599 0.021422 -0.211202
v 0.944599 0.021422 0.148708
v 1.007093 0.021422 0.211202
v 0.944599 10.021422 0.148708
v 1.007093 10.021422 0.211202
v 1.194599 0.021422 0.148708
v 1.132105 0.021422 0.211202
v 1.194599 10.021422 0.148708
v 1.132105 10.021422 0.211202
v -1.184360 10.021422 -0.211202
v -0.934360 10.021422 -0.211202
v -1.184360 0.021422 -0.211202
v -0.934360 0.021422 -0.211202
v -1.184360 0.021422 0.148708
v -1.121866 0.021422 0.211202
v -1.184360 10.021422 0.148708
v -1.121866 10.021422 0.211202
v -0.934360 0.021422 0.148708
v -0.996853 0.021422 0.211202
v -0.934360 10.021422 0.148708
v -0.996853 10.021422 0.211202
v 0.987775 8.888476 0.125000
v 0.987775 9.138476 0.125000
v -1.012225 8.888476 0.125000
v -1.012225 9.138476 0.125000
v -1.012225 8.888476 -0.125000
v -1.012225 9.138476 -0.125000
v 0.987775 8.888476 -0.125000
v 0.987775 9.138476 -0.125000
vt 0.678508 0.718431
vt 0.675064 0.718450
vt 0.679524 0.596919
vt 0.672816 0.596953
vt 0.679500 0.591803
vt 0.672789 0.591837
vt 0.678922 0.373635
vt 0.671156 0.373675
vt 0.721992 0.334221
vt 0.627688 0.334699
vt 0.671625 0.718493
vt 0.669378 0.597015
vt 0.681947 0.718429
vt 0.682962 0.596945
vt 0.198618 0.441032
vt 0.202061 0.441030
vt 0.203694 0.562537
vt 0.196986 0.562537
vt 0.203695 0.567653
vt 0.196984 0.567653
vt 0.204223 0.785821
vt 0.196457 0.785821
vt 0.247492 0.825016
vt 0.153187 0.825017
vt 0.205501 0.441004
vt 0.207132 0.562492
vt 0.195178 0.441016
vt 0.193547 0.562494
vt 0.308941 0.494702
vt 0.312384 0.494700
vt 0.314016 0.616207
vt 0.307308 0.616207
vt 0.314018 0.621324
vt 0.307307 0.621324
vt 0.314545 0.839492
vt 0.306779 0.839492
vt 0.357815 0.878687
vt 0.263510 0.878687
vt 0.315824 0.494675
vt 0.317455 0.616163
vt 0.305501 0.494687
vt 0.303870 0.616164
vt 0.762605 0.564874
vt 0.759163 0.564790
vt 0.760554 0.443280
vt 0.767260 0.443447
vt 0.760680 0.438166
vt 0.767389 0.438332
vt 0.765581 0.220052
vt 0.773344 0.220245
vt 0.723300 0.179793
vt 0.817576 0.182139
vt 0.755723 0.564730
vt 0.757116 0.443239
vt 0.766043 0.564975
vt 0.770696 0.443576
vt 0.607110 0.445504
vt 0.610554 0.445502
vt 0.612186 0.567009
vt 0.605478 0.567009
vt 0.612187 0.572126
vt 0.605476 0.572126
vt 0.612715 0.790294
vt 0.604949 0.790294
vt 0.655985 0.829489
vt 0.561679 0.829490
vt 0.613993 0.445477
vt 0.615624 0.566965
vt 0.603670 0.445489
vt 0.602040 0.566966
vt 0.527226 0.596812
vt 0.523782 0.596805
vt 0.522477 0.475294
vt 0.529185 0.475312
vt 0.522489 0.470178
vt 0.529200 0.470196
vt 0.522549 0.252009
vt 0.530315 0.252030
vt 0.479385 0.212698
vt 0.573690 0.212951
vt 0.520342 0.596821
vt 0.519039 0.475329
vt 0.530665 0.596837
vt 0.532623 0.475365
vt 0.434172 0.420160
vt 0.437615 0.420158
vt 0.439248 0.541665
vt 0.432540 0.541665
vt 0.439249 0.546781
vt 0.432538 0.546781
vt 0.439777 0.764949
vt 0.432011 0.764949
vt 0.483046 0.804144
vt 0.388741 0.804145
vt 0.441055 0.420133
vt 0.442686 0.541620
vt 0.430732 0.420145
vt 0.429101 0.541622
vt 0.372203 0.534185
vt 0.368759 0.534177
vt 0.367505 0.412665
vt 0.374213 0.412686
vt 0.367520 0.407549
vt 0.374231 0.407570
vt 0.367672 0.189380
vt 0.375437 0.189405
vt 0.324524 0.150051
vt 0.418829 0.150344
vt 0.365319 0.534191
vt 0.364067 0.412699
vt 0.375642 0.534211
vt 0.377651 0.412740
vt 0.870542 0.371838
vt 0.872324 0.106612
vt 0.876082 0.106610
vt 0.877864 0.371838
vt 0.866878 0.383006
vt 0.881527 0.383006
vt 0.882679 0.859228
vt 0.865727 0.859228
vt 0.963155 0.932127
vt 0.925671 0.944785
vt 0.822734 0.944785
vt 0.785250 0.932128
vt 0.882634 0.371823
vt 0.879072 0.106601
vt 0.885469 0.106554
vt 0.889029 0.371740
vt 0.862936 0.106580
vt 0.869334 0.106608
vt 0.865771 0.371824
vt 0.859377 0.371743
vt 0.866881 0.373490
vt 0.881525 0.373490
vt 0.117664 0.400164
vt 0.119446 0.134939
vt 0.123204 0.134937
vt 0.124986 0.400164
vt 0.114000 0.411332
vt 0.128649 0.411332
vt 0.129801 0.887554
vt 0.112849 0.887554
vt 0.210277 0.960452
vt 0.172793 0.973110
vt 0.069857 0.973111
vt 0.032372 0.960453
vt 0.129756 0.400150
vt 0.126194 0.134928
vt 0.132591 0.134881
vt 0.136151 0.400067
vt 0.110058 0.134907
vt 0.116456 0.134935
vt 0.112893 0.400150
vt 0.106499 0.400070
vt 0.114003 0.401817
vt 0.128646 0.401816
vt 0.255270 0.032540
vt 0.258713 0.032538
vt 0.260346 0.154045
vt 0.253638 0.154045
vt 0.260347 0.159161
vt 0.253636 0.159161
vt 0.260875 0.377329
vt 0.253109 0.377329
vt 0.304145 0.416524
vt 0.209839 0.416525
vt 0.262153 0.032512
vt 0.263784 0.154000
vt 0.251830 0.032524
vt 0.250200 0.154001
vn 0.000000 0.000000 1.000000
vn 0.000000 0.000000 1.000000
vn 0.000000 0.000000 1.000000
vn 0.000000 0.000000 1.000000
vn -1.000000 0.000000 0.000000
vn -1.000000 0.000000 0.000000
vn -1.000000 0.000000 0.000000
vn -1.000000 0.000000 0.000000
vn 0.000000 0.000000 -1.000000
vn 0.000000 0.000000 -1.000000
vn 0.000000 0.000000 -1.000000
vn 0.000000 0.000000 -1.000000
vn 1.000000 0.000000 0.000000
vn 1.000000 0.000000 0.000000
vn 1.000000 0.000000 0.000000
vn 1.000000 0.000000 0.000000
vn 0.000000 1.000000 0.000000
vn 0.000000 1.000000 0.000000
vn 0.000000 1.000000 0.000000
vn 0.000000 1.000000 0.000000
vn 0.000000 -1.000000 0.000000
vn 0.000000 -1.000000 0.000000
vn 0.000000 -1.000000 0.000000
vn 0.000000 -1.000000 0.000000
vn 0.000000 0.000000 1.000000
vn 0.000000 0.000000 1.000000
vn 0.000000 0.000000 1.000000
vn 0.000000 0.000000 1.000000
vn -1.000000 0.000000 0.000000
vn -1.000000 0.000000 0.000000
vn -1.000000 0.000000 0.000000
vn -1.000000 0.000000 0.000000
vn 0.000000 0.000000 -1.000000
vn 0.000000 0.000000 -1.000000
vn 0.000000 0.000000 -1.000000
vn 0.000000 0.000000 -1.000000
vn 1.000000 0.000000 0.000000
vn 1.000000 0.000000 0.000000
vn 1.000000 0.000000 0.000000
vn 1.000000 0.000000 0.000000
vn 0.000000 1.000000 0.000000
vn 0.000000 1.000000 0.000000
vn 0.000000 1.000000 0.000000
vn 0.000000 1.000000 0.000000
vn 0.000000 -1.000000 0.000000
vn 0.000000 -1.000000 0.000000
vn 0.000000 -1.000000 0.000000
vn 0.000000 -1.000000 0.000000
vn 0.000000 0.000000 1.000000
vn 0.000000 0.000000 1.000000
vn 0.000000 0.000000 1.000000
vn 0.000000 0.000000 1.000000
vn -1.000000 0.000000 0.000000
vn -1.000000 0.000000 0.000000
vn -1.000000 0.000000 0.000000
vn -1.000000 0.000000 0.000000
vn 0.000000 0.000000 -1.000000
vn 0.000000 0.000000 -1.000000
vn 0.000000 0.000000 -1.000000
vn 0.000000 0.000000 -1.000000
vn 1.000000 0.000000 0.000000
vn 1.000000 0.000000 0.000000
vn 1.000000 0.000000 0.000000
vn 1.000000 0.000000 0.000000
vn 0.000000 1.000000 0.000000
vn 0.000000 1.000000 0.000000
vn 0.000000 1.000000 0.000000
vn 0.000000 1.000000 0.000000
vn 0.000000 -1.000000 0.000000
vn 0.000000 -1.000000 0.000000
vn 0.000000 -1.000000 0.000000
vn 0.000000 -1.000000 0.000000
vn 0.000000 0.000000 1.000000
vn 0.000000 0.000000 1.000000
vn 0.000000 0.000000 1.000000
vn 0.000000 0.000000 1.000000
vn -1.000000 0.000000 0.000000
vn -1.000000 0.000000 0.000000
vn -1.000000 0.000000 0.000000
vn -1.000000 0.000000 0.000000
vn 0.000000 0.000000 -1.000000
vn 0.000000 0.000000 -1.000000
vn 0.000000 0.000000 -1.000000
vn 0.000000 0.000000 -1.000000
vn 1.000000 0.000000 0.000000
vn 1.000000 0.000000 0.000000
vn 1.000000 0.000000 0.000000
vn 1.000000 0.000000 0.000000
vn 0.000000 1.000000 0.000000
vn 0.000000 1.000000 0.000000
vn 0.000000 1.000000 0.000000
vn 0.000000 1.000000 0.000000
vn 0.000000 -1.000000 0.000000
vn 0.000000 -1.000000 0.000000
vn 0.000000 -1.000000 0.000000
vn 0.000000 -1.000000 0.000000
vn 0.000000 0.000000 1.000000
vn 0.000000 0.000000 1.000000
vn 0.000000 0.000000 1.000000
vn 0.000000 0.000000 1.000000
vn -1.000000 0.000000 0.000000
vn -1.000000 0.000000 0.000000
vn -1.000000 0.000000 0.000000
vn -1.000000 0.000000 0.000000
vn 0.000000 0.000000 -1.000000
vn 0.000000 0.000000 -1.000000
vn 0.000000 0.000000 -1.000000
vn 0.000000 0.000000 -1.000000
vn 1.000000 0.000000 0.000000
vn 1.000000 0.000000 0.000000
vn 1.000000 0.000000 0.000000
vn 1.000000 0.000000 0.000000
vn 0.000000 1.000000 0.000000
vn 0.000000 1.000000 0.000000
vn 0.000000 1.000000 0.000000
vn 0.000000 1.000000 0.000000
vn 0.000000 -1.000000 0.000000
vn 0.000000 -1.000000 0.000000
vn 0.000000 -1.000000 0.000000
vn 0.000000 -1.000000 0.000000
vn 0.000000 0.000000 1.000000
vn 0.000000 0.000000 1.000000
vn 0.000000 0.000000 1.000000
vn 0.000000 0.000000 1.000000
vn -1.000000 0.000000 0.000000
vn -1.000000 0.000000 0.000000
vn -1.000000 0.000000 0.000000
vn -1.000000 0.000000 0.000000
vn 0.000000 0.000000 -1.000000
vn 0.000000 0.000000 -1.000000
vn 0.000000 0.000000 -1.000000
vn 0.000000 0.000000 -1.000000
vn 1.000000 0.000000 0.000000
vn 1.000000 0.000000 0.000000
vn 1.000000 0.000000 0.000000
vn 1.000000 0.000000 0.000000
vn 0.000000 1.000000 0.000000
vn 0.000000 1.000000 0.000000
vn 0.000000 1.000000 0.000000
vn 0.000000 1.000000 0.000000
vn 0.000000 -1.000000 0.000000
vn 0.000000 -1.000000 0.000000
vn 0.000000 -1.000000 0.000000
vn 0.000000 -1.000000 0.000000
vn 0.000000 0.000000 1.000000
vn 0.000000 0.000000 1.000000
vn 0.000000 0.000000 1.000000
vn 0.000000 0.000000 1.000000
vn -1.000000 0.000000 0.000000
vn -1.000000 0.000000 0.000000
vn -1.000000 0.000000 0.000000
vn -1.000000 0.000000 0.000000
vn 0.000000 0.000000 -1.000000
vn 0.000000 0.000000 -1.000000
vn 0.000000 0.000000 -1.000000
vn 0.000000 0.000000 -1.000000
vn 1.000000 0.000000 0.000000
vn 1.000000 0.000000 0.000000
vn 1.000000 0.000000 0.000000
vn 1.000000 0.000000 0.000000
vn 0.000000 1.000000 0.000000
vn 0.000000 1.000000 0.000000
vn 0.000000 1.000000 0.000000
vn 0.000000 1.000000 0.000000
vn 0.000000 -1.000000 0.000000
vn 0.000000 -1.000000 0.000000
vn 0.000000 -1.000000 0.000000
vn 0.000000 -1.000000 0.000000
vn 0.000000 0.000000 1.000000
vn 0.000000 0.000000 1.000000
vn 0.000000 0.000000 1.000000
vn 0.000000 0.000000 1.000000
vn -1.000000 0.000000 0.000000
vn -1.000000 0.000000 0.000000
vn -1.000000 0.000000 0.000000
vn -1.000000 0.000000 0.000000
vn 0.000000 0.000000 -1.000000
vn 0.000000 0.000000 -1.000000
vn 0.000000 0.000000 -1.000000
vn 0.000000 0.000000 -1.000000
vn 1.000000 0.000000 0.000000
vn 1.000000 0.000000 0.000000
vn 1.000000 0.000000 0.000000
vn 1.000000 0.000000 0.000000
vn 0.000000 1.000000 0.000000
vn 0.000000 1.000000 0.000000
vn 0.000000 1.000000 0.000000
vn 0.000000 1.000000 0.000000
vn 0.000000 -1.000000 0.000000
vn 0.000000 -1.000000 0.000000
vn 0.000000 -1.000000 0.000000
vn 0.000000 -1.000000 0.000000
vn 0.000000 0.000000 1.000000
vn 0.000000 0.000000 1.000000
vn 0.000000 0.000000 1.000000
vn 0.000000 0.000000 1.000000
vn 0.000000 0.000000 -1.000000
vn 0.000000 0.000000 -1.000000
vn 0.000000 0.000000 -1.000000
vn 0.000000 0.000000 -1.000000
vn 0.000000 -1.000000 0.000000
vn 0.000000 -1.000000 0.000000
vn 0.000000 -1.000000 0.000000
vn 0.000000 -1.000000 0.000000
vn 0.000000 -1.000000 0.000000
vn 0.000000 -1.000000 0.000000
vn 1.000000 0.000000 0.000000
vn 1.000000 0.000000 0.000000
vn 1.000000 0.000000 0.000000
vn 1.000000 0.000000 0.000000
vn -1.000000 0.000000 0.000000
vn -1.000000 0.000000 0.000000
vn -1.000000 0.000000 0.000000
vn -1.000000 0.000000 0.000000
vn 0.000000 1.000000 0.000000
vn 0.000000 1.000000 0.000000
vn 0.000000 1.000000 0.000000
vn 0.000000 1.000000 0.000000
vn 0.000000 1.000000 0.000000
vn 0.000000 1.000000 0.000000
vn -0.707106 0.000000 0.707107
vn -0.707106 0.000000 0.707107
vn -0.707106 0.000000 0.707107
vn -0.707106 0.000000 0.707107
vn 0.707106 0.000000 0.707107
vn 0.707106 0.000000 0.707107
vn 0.707106 0.000000 0.707107
vn 0.707106 0.000000 0.707107
vn 0.000000 0.000000 1.000000
vn 0.000000 0.000000 1.000000
vn 0.000000 0.000000 1.000000
vn 0.000000 0.000000 1.000000
vn 0.000000 0.000000 -1.000000
vn 0.000000 0.000000 -1.000000
vn 0.000000 0.000000 -1.000000
vn 0.000000 0.000000 -1.000000
vn 0.000000 -1.000000 -0.000000
vn 0.000000 -1.000000 -0.000000
vn 0.000000 -1.000000 -0.000000
vn 0.000000 -1.000000 -0.000000
vn 0.000000 -1.000000 -0.000000
vn 0.000000 -1.000000 -0.000000
vn 1.000000 0.000000 0.000000
vn 1.000000 0.000000 0.000000
vn 1.000000 0.000000 0.000000
vn 1.000000 0.000000 0.000000
vn -1.000000 0.000000 0.000000
vn -1.000000 0.000000 0.000000
vn -1.000000 0.000000 0.000000
vn -1.000000 0.000000 0.000000
vn 0.000000 1.000000 0.000000
vn 0.000000 1.000000 0.000000
vn 0.000000 1.000000 0.000000
vn 0.000000 1.000000 0.000000
vn 0.000000 1.000000 0.000000
vn 0.000000 1.000000 0.000000
vn -0.707106 0.000000 0.707107
vn -0.707106 0.000000 0.707107
vn -0.707106 0.000000 0.707107
vn -0.707106 0.000000 0.707107
vn 0.707107 0.000000 0.707107
vn 0.707107 0.000000 0.707107
vn 0.707107 0.000000 0.707107
vn 0.707107 0.000000 0.707107
vn 0.000000 0.000000 1.000000
vn 0.000000 0.000000 1.000000
vn 0.000000 0.000000 1.000000
vn 0.000000 0.000000 1.000000
vn -1.000000 0.000000 0.000000
vn -1.000000 0.000000 0.000000
vn -1.000000 0.000000 0.000000
vn -1.000000 0.000000 0.000000
vn 0.000000 0.000000 -1.000000
vn 0.000000 0.000000 -1.000000
vn 0.000000 0.000000 -1.000000
vn 0.000000 0.000000 -1.000000
vn 1.000000 0.000000 0.000000
vn 1.000000 0.000000 0.000000
vn 1.000000 0.000000 0.000000
vn 1.000000 0.000000 0.000000
vn 0.000000 1.000000 0.000000
vn 0.000000 1.000000 0.000000
vn 0.000000 1.000000 0.000000
vn 0.000000 1.000000 0.000000
vn 0.000000 -1.000000 0.000000
vn 0.000000 -1.000000 0.000000
vn 0.000000 -1.000000 0.000000
vn 0.000000 -1.000000 0.000000
s off
g pCube21
usemtl initialShadingGroup
f 1/1/1 2/2/2 4/4/3 3/3/4
f 3/3/5 4/4/6 6/6/7 5/5/8
f 5/5/9 6/6/10 8/8/11 7/7/12
f 7/7/13 8/8/14 2/10/15 1/9/16
f 2/2/17 8/11/18 6/12/19 4/4/20
f 7/13/21 1/1/22 3/3/23 5/14/24
f 9/15/25 10/16/26 12/17/27 11/18/28
f 11/18/29 12/17/30 14/19/31 13/20/32
f 13/20/33 14/19/34 16/21/35 15/22/36
f 15/22/37 16/21/38 10/23/39 9/24/40
f 10/16/41 16/25/42 14/26/43 12/17/44
f 15/27/45 9/15/46 11/18/47 13/28/48
f 17/29/49 18/30/50 20/31/51 19/32/52
f 19/32/53 20/31/54 22/33/55 21/34/56
f 21/34/57 22/33/58 24/35/59 23/36/60
f 23/36/61 24/35/62 18/37/63 17/38/64
f 18/30/65 24/39/66 22/40/67 20/31/68
f 23/41/69 17/29/70 19/32/71 21/42/72
f 25/43/73 26/44/74 28/45/75 27/46/76
f 27/46/77 28/45/78 30/47/79 29/48/80
f 29/48/81 30/47/82 32/49/83 31/50/84
f 31/50/85 32/49/86 26/51/87 25/52/88
f 26/44/89 32/53/90 30/54/91 28/45/92
f 31/55/93 25/43/94 27/46/95 29/56/96
f 33/57/97 34/58/98 36/59/99 35/60/100
f 35/60/101 36/59/102 38/61/103 37/62/104
f 37/62/105 38/61/106 40/63/107 39/64/108
f 39/64/109 40/63/110 34/65/111 33/66/112
f 34/58/113 40/67/114 38/68/115 36/59/116
f 39/69/117 33/57/118 35/60/119 37/70/120
f 41/71/121 42/72/122 44/73/123 43/74/124
f 43/74/125 44/73/126 46/75/127 45/76/128
f 45/76/129 46/75/130 48/77/131 47/78/132
f 47/78/133 48/77/134 42/79/135 41/80/136
f 42/72/137 48/81/138 46/82/139 44/73/140
f 47/83/141 41/71/142 43/74/143 45/84/144
f 49/85/145 50/86/146 52/87/147 51/88/148
f 51/88/149 52/87/150 54/89/151 53/90/152
f 53/90/153 54/89/154 56/91/155 55/92/156
f 55/92/157 56/91/158 50/93/159 49/94/160
f 50/86/161 56/95/162 54/96/163 52/87/164
f 55/97/165 49/85/166 51/88/167 53/98/168
f 57/99/169 58/100/170 60/101/171 59/102/172
f 59/102/173 60/101/174 62/103/175 61/104/176
f 61/104/177 62/103/178 64/105/179 63/106/180
f 63/106/181 64/105/182 58/107/183 57/108/184
f 58/100/185 64/109/186 62/110/187 60/101/188
f 63/111/189 57/99/190 59/102/191 61/112/192
f 72/113/193 70/114/194 74/115/195 76/116/196
f 65/117/197 66/118/198 68/119/199 67/120/200
f 67/120/201 68/119/202 73/121/203 74/122/204 70/123/205 69/124/206
f 75/125/207 73/126/208 68/127/209 66/128/210
f 67/129/211 69/130/212 71/131/213 65/132/214
f 71/133/215 72/113/216 76/116/217 75/134/218 66/118/219 65/117/220
f 69/130/221 70/114/222 72/113/223 71/131/224
f 74/115/225 73/126/226 75/125/227 76/116/228
f 84/135/229 82/136/230 86/137/231 88/138/232
f 77/139/233 78/140/234 80/141/235 79/142/236
f 79/142/237 80/141/238 85/143/239 86/144/240 82/145/241 81/146/242
f 87/147/243 85/148/244 80/149/245 78/150/246
f 79/151/247 81/152/248 83/153/249 77/154/250
f 83/155/251 84/135/252 88/138/253 87/156/254 78/140/255 77/139/256
f 81/152/257 82/136/258 84/135/259 83/153/260
f 86/137/261 85/148/262 87/147/263 88/138/264
f 89/157/265 90/158/266 92/159/267 91/160/268
f 91/160/269 92/159/270 94/161/271 93/162/272
f 93/162/273 94/161/274 96/163/275 95/164/276
f 95/164/277 96/163/278 90/165/279 89/166/280
f 90/158/281 96/167/282 94/168/283 92/159/284
f 95/169/285 89/157/286 91/160/287 93/170/288
