# This file uses centimeters as units for non-parametric coordinates.

mtllib LinearCeilingLight.mtl
g default
v -1.500000 9.710345 0.375000
v 1.500000 9.710345 0.375000
v -1.500000 9.910345 0.375000
v 1.500000 9.910345 0.375000
v -1.500000 9.910345 -0.375000
v 1.500000 9.910345 -0.375000
v -1.500000 9.710345 -0.375000
v 1.500000 9.710345 -0.375000
vt 0.224072 0.033546
vt 0.751375 0.033552
vt 0.224072 0.068701
vt 0.751374 0.068705
vt 0.224063 0.200566
vt 0.751378 0.200527
vt 0.224064 0.235729
vt 0.751382 0.235680
vt 0.224073 0.367585
vt 0.751407 0.367514
vt 0.883225 0.033538
vt 0.883228 0.068714
vt 0.092240 0.033550
vt 0.092241 0.068697
vn 0.000000 0.000000 1.000000
vn 0.000000 0.000000 1.000000
vn 0.000000 0.000000 1.000000
vn 0.000000 0.000000 1.000000
vn 0.000000 1.000000 0.000000
vn 0.000000 1.000000 0.000000
vn 0.000000 1.000000 0.000000
vn 0.000000 1.000000 0.000000
vn 0.000000 0.000000 -1.000000
vn 0.000000 0.000000 -1.000000
vn 0.000000 0.000000 -1.000000
vn 0.000000 0.000000 -1.000000
vn 0.000000 -1.000000 0.000000
vn 0.000000 -1.000000 0.000000
vn 0.000000 -1.000000 0.000000
vn 0.000000 -1.000000 0.000000
vn 1.000000 0.000000 0.000000
vn 1.000000 0.000000 0.000000
vn 1.000000 0.000000 0.000000
vn 1.000000 0.000000 0.000000
vn -1.000000 0.000000 0.000000
vn -1.000000 0.000000 0.000000
vn -1.000000 0.000000 0.000000
vn -1.000000 0.000000 0.000000
s off
g pCube6
usemtl initialShadingGroup
f 1/1/1 2/2/2 4/4/3 3/3/4
f 3/3/5 4/4/6 6/6/7 5/5/8
f 5/5/9 6/6/10 8/8/11 7/7/12
f 7/7/13 8/8/14 2/10/15 1/9/16
f 2/2/17 8/11/18 6/12/19 4/4/20
f 7/13/21 1/1/22 3/3/23 5/14/24
g default
v 1.375000 9.760585 0.163122
v 1.375000 9.738624 0.141161
v 1.375000 9.708624 0.133122
v 1.375000 9.678624 0.141161
v 1.375000 9.656662 0.163122
v 1.375000 9.648624 0.193122
v 1.375000 9.656662 0.223122
v 1.375000 9.678624 0.245084
v 1.375000 9.708624 0.253122
v 1.375000 9.738624 0.245084
v 1.375000 9.760585 0.223122
v 1.375000 9.768624 0.193122
v -1.375000 9.760585 0.163122
v -1.375000 9.738624 0.141161
v -1.375000 9.708624 0.133122
v -1.375000 9.678624 0.141161
v -1.375000 9.656662 0.163122
v -1.375000 9.648624 0.193122
v -1.375000 9.656662 0.223122
v -1.375000 9.678624 0.245084
v -1.375000 9.708624 0.253122
v -1.375000 9.738624 0.245084
v -1.375000 9.760585 0.223122
v -1.375000 9.768624 0.193122
v 1.375000 9.708624 0.193122
v -1.375000 9.708624 0.193122
vt 0.879476 0.927357
vt 0.875616 0.923496
vt 0.870342 0.922083
vt 0.865069 0.923496
vt 0.861208 0.927357
vt 0.859795 0.932630
vt 0.861208 0.937904
vt 0.865069 0.941764
vt 0.870342 0.943177
vt 0.875616 0.941764
vt 0.879476 0.937904
vt 0.880889 0.932630
vt 0.811168 0.636764
vt 0.823261 0.636764
vt 0.835355 0.636764
vt 0.847448 0.636764
vt 0.859541 0.636764
vt 0.871635 0.636764
vt 0.883728 0.636764
vt 0.895822 0.636764
vt 0.907915 0.636764
vt 0.920008 0.636764
vt 0.932102 0.636764
vt 0.944195 0.636764
vt 0.956289 0.636764
vt 0.811168 0.854991
vt 0.823261 0.854991
vt 0.835355 0.854991
vt 0.847448 0.854991
vt 0.859541 0.854991
vt 0.871635 0.854991
vt 0.883728 0.854991
vt 0.895822 0.854991
vt 0.907915 0.854991
vt 0.920008 0.854991
vt 0.932102 0.854991
vt 0.944195 0.854991
vt 0.956289 0.854991
vt 0.843780 0.961180
vt 0.839920 0.957320
vt 0.834647 0.955907
vt 0.829373 0.957320
vt 0.825513 0.961180
vt 0.824100 0.966454
vt 0.825513 0.971727
vt 0.829373 0.975588
vt 0.834647 0.977001
vt 0.839920 0.975588
vt 0.843780 0.971727
vt 0.845194 0.966454
vt 0.870342 0.932208
vt 0.834647 0.966032
vn 0.000000 0.707107 -0.707107
vn 0.000000 0.707107 -0.707107
vn 0.000000 0.707107 -0.707107
vn 0.000000 0.707107 -0.707107
vn 0.000000 0.258819 -0.965926
vn 0.000000 0.258819 -0.965926
vn 0.000000 0.258819 -0.965926
vn 0.000000 0.258819 -0.965926
vn -0.000000 -0.258819 -0.965926
vn -0.000000 -0.258819 -0.965926
vn -0.000000 -0.258819 -0.965926
vn -0.000000 -0.258819 -0.965926
vn -0.000000 -0.707107 -0.707107
vn -0.000000 -0.707107 -0.707107
vn -0.000000 -0.707107 -0.707107
vn -0.000000 -0.707107 -0.707107
vn -0.000000 -0.965926 -0.258819
vn -0.000000 -0.965926 -0.258819
vn -0.000000 -0.965926 -0.258819
vn -0.000000 -0.965926 -0.258819
vn -0.000000 -0.965926 0.258819
vn -0.000000 -0.965926 0.258819
vn -0.000000 -0.965926 0.258819
vn -0.000000 -0.965926 0.258819
vn -0.000000 -0.707107 0.707107
vn -0.000000 -0.707107 0.707107
vn -0.000000 -0.707107 0.707107
vn -0.000000 -0.707107 0.707107
vn -0.000000 -0.258819 0.965926
vn -0.000000 -0.258819 0.965926
vn -0.000000 -0.258819 0.965926
vn -0.000000 -0.258819 0.965926
vn 0.000000 0.258819 0.965926
vn 0.000000 0.258819 0.965926
vn 0.000000 0.258819 0.965926
vn 0.000000 0.258819 0.965926
vn 0.000000 0.707107 0.707107
vn 0.000000 0.707107 0.707107
vn 0.000000 0.707107 0.707107
vn 0.000000 0.707107 0.707107
vn 0.000000 0.965926 0.258819
vn 0.000000 0.965926 0.258819
vn 0.000000 0.965926 0.258819
vn 0.000000 0.965926 0.258819
vn 0.000000 0.965926 -0.258819
vn 0.000000 0.965926 -0.258819
vn 0.000000 0.965926 -0.258819
vn 0.000000 0.965926 -0.258819
vn 1.000000 -0.000000 -0.000002
vn 1.000000 -0.000000 0.000002
vn 1.000000 -0.000000 -0.000000
vn 1.000000 -0.000000 0.000000
vn 1.000000 -0.000000 -0.000004
vn 1.000000 -0.000000 -0.000000
vn 1.000000 -0.000000 0.000000
vn 1.000000 -0.000000 -0.000002
vn 1.000000 -0.000000 0.000002
vn 1.000000 -0.000000 0.000000
vn 1.000000 -0.000000 0.000004
vn 1.000000 -0.000000 0.000000
vn 1.000000 -0.000000 0.000000
vn -1.000000 0.000000 -0.000000
vn -1.000000 0.000000 -0.000004
vn -1.000000 0.000000 0.000000
vn -1.000000 0.000000 0.000000
vn -1.000000 0.000000 -0.000002
vn -1.000000 0.000000 0.000002
vn -1.000000 0.000000 0.000000
vn -1.000000 0.000000 0.000000
vn -1.000000 0.000000 0.000004
vn -1.000000 0.000000 0.000000
vn -1.000000 0.000000 0.000002
vn -1.000000 0.000000 -0.000002
vn -1.000000 0.000000 0.000000
s off
g pCylinder12
usemtl initialShadingGroup
f 9/27/25 10/28/26 22/41/27 21/40/28
f 10/28/29 11/29/30 23/42/31 22/41/32
f 11/29/33 12/30/34 24/43/35 23/42/36
f 12/30/37 13/31/38 25/44/39 24/43/40
f 13/31/41 14/32/42 26/45/43 25/44/44
f 14/32/45 15/33/46 27/46/47 26/45/48
f 15/33/49 16/34/50 28/47/51 27/46/52
f 16/34/53 17/35/54 29/48/55 28/47/56
f 17/35/57 18/36/58 30/49/59 29/48/60
f 18/36/61 19/37/62 31/50/63 30/49/64
f 19/37/65 20/38/66 32/51/67 31/50/68
f 20/38/69 9/39/70 21/52/71 32/51/72
s 1
f 10/16/73 9/15/74 33/65/75
f 11/17/76 10/16/73 33/65/75
f 12/18/77 11/17/76 33/65/75
f 13/19/78 12/18/77 33/65/75
f 14/20/79 13/19/78 33/65/75
f 15/21/80 14/20/79 33/65/75
f 16/22/81 15/21/80 33/65/75
f 17/23/82 16/22/81 33/65/75
f 18/24/83 17/23/82 33/65/75
f 19/25/84 18/24/83 33/65/75
f 20/26/85 19/25/84 33/65/75
f 9/15/74 20/26/85 33/65/75
s 2
f 21/63/86 22/62/87 34/66/88
f 22/62/87 23/61/89 34/66/88
f 23/61/89 24/60/90 34/66/88
f 24/60/90 25/59/91 34/66/88
f 25/59/91 26/58/92 34/66/88
f 26/58/92 27/57/93 34/66/88
f 27/57/93 28/56/94 34/66/88
f 28/56/94 29/55/95 34/66/88
f 29/55/95 30/54/96 34/66/88
f 30/54/96 31/53/97 34/66/88
f 31/53/97 32/64/98 34/66/88
f 32/64/98 21/63/86 34/66/88
g default
v 1.375000 9.760585 -0.197694
v 1.375000 9.738624 -0.219656
v 1.375000 9.708624 -0.227694
v 1.375000 9.678624 -0.219656
v 1.375000 9.656662 -0.197694
v 1.375000 9.648624 -0.167694
v 1.375000 9.656662 -0.137694
v 1.375000 9.678624 -0.115733
v 1.375000 9.708624 -0.107694
v 1.375000 9.738624 -0.115733
v 1.375000 9.760585 -0.137694
v 1.375000 9.768624 -0.167694
v -1.375000 9.760585 -0.197694
v -1.375000 9.738624 -0.219656
v -1.375000 9.708624 -0.227694
v -1.375000 9.678624 -0.219656
v -1.375000 9.656662 -0.197694
v -1.375000 9.648624 -0.167694
v -1.375000 9.656662 -0.137694
v -1.375000 9.678624 -0.115733
v -1.375000 9.708624 -0.107694
v -1.375000 9.738624 -0.115733
v -1.375000 9.760585 -0.137694
v -1.375000 9.768624 -0.167694
v 1.375000 9.708624 -0.167694
v -1.375000 9.708624 -0.167694
vt 0.946406 0.913971
vt 0.942545 0.910111
vt 0.937272 0.908698
vt 0.931998 0.910111
vt 0.928138 0.913971
vt 0.926725 0.919244
vt 0.928138 0.924518
vt 0.931998 0.928378
vt 0.937272 0.929791
vt 0.942545 0.928378
vt 0.946406 0.924518
vt 0.947819 0.919244
vt 0.793320 0.340044
vt 0.805413 0.340044
vt 0.817507 0.340044
vt 0.829600 0.340044
vt 0.841694 0.340044
vt 0.853787 0.340044
vt 0.865880 0.340044
vt 0.877974 0.340044
vt 0.890067 0.340044
vt 0.902161 0.340044
vt 0.914254 0.340044
vt 0.926347 0.340044
vt 0.938441 0.340044
vt 0.793320 0.558271
vt 0.805413 0.558271
vt 0.817507 0.558271
vt 0.829600 0.558271
vt 0.841694 0.558271
vt 0.853787 0.558271
vt 0.865880 0.558271
vt 0.877974 0.558271
vt 0.890067 0.558271
vt 0.902161 0.558271
vt 0.914254 0.558271
vt 0.926347 0.558271
vt 0.938441 0.558271
vt 0.886169 0.883096
vt 0.882309 0.879236
vt 0.877035 0.877823
vt 0.871762 0.879236
vt 0.867901 0.883096
vt 0.866488 0.888370
vt 0.867901 0.893643
vt 0.871762 0.897503
vt 0.877035 0.898917
vt 0.882309 0.897503
vt 0.886169 0.893643
vt 0.887582 0.888370
vt 0.937272 0.918823
vt 0.877035 0.887948
vn 0.000000 0.707107 -0.707107
vn 0.000000 0.707107 -0.707107
vn 0.000000 0.707107 -0.707107
vn 0.000000 0.707107 -0.707107
vn 0.000000 0.258819 -0.965926
vn 0.000000 0.258819 -0.965926
vn 0.000000 0.258819 -0.965926
vn 0.000000 0.258819 -0.965926
vn -0.000000 -0.258819 -0.965926
vn -0.000000 -0.258819 -0.965926
vn -0.000000 -0.258819 -0.965926
vn -0.000000 -0.258819 -0.965926
vn -0.000000 -0.707107 -0.707107
vn -0.000000 -0.707107 -0.707107
vn -0.000000 -0.707107 -0.707107
vn -0.000000 -0.707107 -0.707107
vn -0.000000 -0.965926 -0.258819
vn -0.000000 -0.965926 -0.258819
vn -0.000000 -0.965926 -0.258819
vn -0.000000 -0.965926 -0.258819
vn -0.000000 -0.965926 0.258819
vn -0.000000 -0.965926 0.258819
vn -0.000000 -0.965926 0.258819
vn -0.000000 -0.965926 0.258819
vn -0.000000 -0.707107 0.707107
vn -0.000000 -0.707107 0.707107
vn -0.000000 -0.707107 0.707107
vn -0.000000 -0.707107 0.707107
vn -0.000000 -0.258819 0.965926
vn -0.000000 -0.258819 0.965926
vn -0.000000 -0.258819 0.965926
vn -0.000000 -0.258819 0.965926
vn 0.000000 0.258819 0.965926
vn 0.000000 0.258819 0.965926
vn 0.000000 0.258819 0.965926
vn 0.000000 0.258819 0.965926
vn 0.000000 0.707107 0.707107
vn 0.000000 0.707107 0.707107
vn 0.000000 0.707107 0.707107
vn 0.000000 0.707107 0.707107
vn 0.000000 0.965926 0.258819
vn 0.000000 0.965926 0.258819
vn 0.000000 0.965926 0.258819
vn 0.000000 0.965926 0.258819
vn 0.000000 0.965926 -0.258819
vn 0.000000 0.965926 -0.258819
vn 0.000000 0.965926 -0.258819
vn 0.000000 0.965926 -0.258819
vn 1.000000 -0.000000 -0.000002
vn 1.000000 -0.000000 0.000002
vn 1.000000 -0.000000 -0.000000
vn 1.000000 -0.000000 0.000000
vn 1.000000 -0.000000 -0.000004
vn 1.000000 -0.000000 -0.000000
vn 1.000000 -0.000000 0.000000
vn 1.000000 -0.000000 -0.000002
vn 1.000000 -0.000000 0.000002
vn 1.000000 -0.000000 0.000000
vn 1.000000 -0.000000 0.000004
vn 1.000000 -0.000000 0.000000
vn 1.000000 -0.000000 0.000000
vn -1.000000 0.000000 -0.000000
vn -1.000000 0.000000 -0.000004
vn -1.000000 0.000000 0.000000
vn -1.000000 0.000000 0.000000
vn -1.000000 0.000000 -0.000002
vn -1.000000 0.000000 0.000002
vn -1.000000 0.000000 0.000000
vn -1.000000 0.000000 0.000000
vn -1.000000 0.000000 0.000004
vn -1.000000 0.000000 0.000000
vn -1.000000 0.000000 0.000002
vn -1.000000 0.000000 -0.000002
vn -1.000000 0.000000 0.000000
s off
g pCylinder13
usemtl initialShadingGroup
f 35/79/99 36/80/100 48/93/101 47/92/102
f 36/80/103 37/81/104 49/94/105 48/93/106
f 37/81/107 38/82/108 50/95/109 49/94/110
f 38/82/111 39/83/112 51/96/113 50/95/114
f 39/83/115 40/84/116 52/97/117 51/96/118
f 40/84/119 41/85/120 53/98/121 52/97/122
f 41/85/123 42/86/124 54/99/125 53/98/126
f 42/86/127 43/87/128 55/100/129 54/99/130
f 43/87/131 44/88/132 56/101/133 55/100/134
f 44/88/135 45/89/136 57/102/137 56/101/138
f 45/89/139 46/90/140 58/103/141 57/102/142
f 46/90/143 35/91/144 47/104/145 58/103/146
s 1
f 36/68/147 35/67/148 59/117/149
f 37/69/150 36/68/147 59/117/149
f 38/70/151 37/69/150 59/117/149
f 39/71/152 38/70/151 59/117/149
f 40/72/153 39/71/152 59/117/149
f 41/73/154 40/72/153 59/117/149
f 42/74/155 41/73/154 59/117/149
f 43/75/156 42/74/155 59/117/149
f 44/76/157 43/75/156 59/117/149
f 45/77/158 44/76/157 59/117/149
f 46/78/159 45/77/158 59/117/149
f 35/67/148 46/78/159 59/117/149
s 2
f 47/115/160 48/114/161 60/118/162
f 48/114/161 49/113/163 60/118/162
f 49/113/163 50/112/164 60/118/162
f 50/112/164 51/111/165 60/118/162
f 51/111/165 52/110/166 60/118/162
f 52/110/166 53/109/167 60/118/162
f 53/109/167 54/108/168 60/118/162
f 54/108/168 55/107/169 60/118/162
f 55/107/169 56/106/170 60/118/162
f 56/106/170 57/105/171 60/118/162
f 57/105/171 58/116/172 60/118/162
f 58/116/172 47/115/160 60/118/162
g default
v 1.426651 9.758002 -0.344927
v 1.426651 9.656966 -0.298716
v 1.426651 9.583003 -0.172464
v 1.426651 9.555931 0.000000
v 1.426651 9.583003 0.172464
v 1.426651 9.656966 0.298716
v 1.426651 9.758002 0.344927
v -1.426651 9.758002 -0.344927
v -1.426651 9.656966 -0.298716
v -1.426651 9.583003 -0.172464
v -1.426651 9.555931 0.000000
v -1.426651 9.583003 0.172464
v -1.426651 9.656966 0.298716
v -1.426651 9.758002 0.344927
v 1.426651 9.758002 0.000000
v -1.426651 9.758002 0.000000
vt 0.042741 0.410028
vt 0.019107 0.481266
vt 0.034258 0.554776
vt 0.084134 0.610862
vt 0.155371 0.634496
vt 0.228882 0.619346
vt 0.284968 0.569469
vt 0.242451 0.634063
vt 0.253080 0.617915
vt 0.263709 0.601766
vt 0.274339 0.585618
vt 0.284968 0.569469
vt 0.295597 0.553321
vt 0.306227 0.537172
vt 0.533851 0.825872
vt 0.544481 0.809723
vt 0.555110 0.793575
vt 0.565740 0.777426
vt 0.576369 0.761278
vt 0.586998 0.745129
vt 0.597628 0.728981
vt 0.575640 0.760798
vt 0.552006 0.832036
vt 0.567157 0.905546
vt 0.617033 0.961632
vt 0.688271 0.985266
vt 0.761781 0.970115
vt 0.817867 0.920239
vt 0.159010 0.486560
vt 0.691909 0.837330
vn -0.000000 -0.415936 -0.909394
vn -0.000000 -0.415936 -0.909394
vn -0.000000 -0.415936 -0.909394
vn -0.000000 -0.415936 -0.909394
vn -0.000000 -0.862837 -0.505482
vn -0.000000 -0.862837 -0.505482
vn -0.000000 -0.862837 -0.505482
vn -0.000000 -0.862837 -0.505482
vn -0.000000 -0.987903 -0.155076
vn -0.000000 -0.987903 -0.155076
vn -0.000000 -0.987903 -0.155076
vn -0.000000 -0.987903 -0.155076
vn -0.000000 -0.987903 0.155076
vn -0.000000 -0.987903 0.155076
vn -0.000000 -0.987903 0.155076
vn -0.000000 -0.987903 0.155076
vn -0.000000 -0.862837 0.505482
vn -0.000000 -0.862837 0.505482
vn -0.000000 -0.862837 0.505482
vn -0.000000 -0.862837 0.505482
vn -0.000000 -0.415936 0.909394
vn -0.000000 -0.415936 0.909394
vn -0.000000 -0.415936 0.909394
vn -0.000000 -0.415936 0.909394
vn 1.000000 -0.000000 0.000000
vn 1.000000 -0.000000 0.000000
vn 1.000000 -0.000000 0.000000
vn 1.000000 -0.000000 0.000000
vn 1.000000 -0.000000 0.000000
vn 1.000000 -0.000000 0.000000
vn 1.000000 -0.000000 0.000000
vn 1.000000 -0.000000 0.000000
vn -1.000000 0.000000 0.000000
vn -1.000000 0.000000 0.000000
vn -1.000000 0.000000 0.000000
vn -1.000000 0.000000 0.000000
vn -1.000000 0.000000 0.000000
vn -1.000000 0.000000 0.000000
vn -1.000000 0.000000 0.000000
vn -1.000000 0.000000 0.000000
vn 0.000000 1.000000 0.000000
vn 0.000000 1.000000 0.000000
vn 0.000000 1.000000 0.000000
vn 0.000000 1.000000 0.000000
vn 0.000000 1.000000 0.000000
vn 0.000000 1.000000 0.000000
s off
g pCylinder14
usemtl blinn1SG
f 61/126/173 62/127/174 69/134/175 68/133/176
f 62/127/177 63/128/178 70/135/179 69/134/180
f 63/128/181 64/129/182 71/136/183 70/135/184
f 64/129/185 65/130/186 72/137/187 71/136/188
f 65/130/189 66/131/190 73/138/191 72/137/192
f 66/131/193 67/132/194 74/139/195 73/138/196
s 1
f 62/120/197 61/119/198 75/147/199
f 63/121/200 62/120/197 75/147/199
f 64/122/201 63/121/200 75/147/199
f 65/123/202 64/122/201 75/147/199
f 66/124/203 65/123/202 75/147/199
f 67/125/204 66/124/203 75/147/199
s 2
f 68/146/205 69/145/206 76/148/207
f 69/145/206 70/144/208 76/148/207
f 70/144/208 71/143/209 76/148/207
f 71/143/209 72/142/210 76/148/207
f 72/142/210 73/141/211 76/148/207
f 73/141/211 74/140/212 76/148/207
s off
f 68/146/213 76/148/214 74/139/215 67/125/216 75/147/217 61/126/218
