# ProBuilder 4.0.5
# https://unity3d.com/unity/features/worldbuilding/probuilder
# 8/11/2020 7:03:06 PM

mtllib ./ControlPanel.mtl
o ControlPanel

g ControlPanel
v -59.5 11.5 -8.99999
v -59.59081 11.5 -7.962067
v -59.01704 11.5 -8.870582
v -59.09271 11.5 -8.005645
v -59.59081 14 -7.962077
v -59.5 13.99999 -9.000001
v -59.09271 14 -8.005654
v -59.01704 14 -8.870592
v -59.32115 11.50001 -6.955679
v -58.86799 11.5 -7.166988
v -59.32115 14 -6.955689
v -58.868 14 -7.166999
v -58.72355 11.50001 -6.102213
v -58.36999 11.50001 -6.455767
v -58.72355 14 -6.102223
v -58.36999 14 -6.455777
v -57.87008 11.50001 -5.504611
v -57.65877 11.50001 -5.957765
v -57.87008 14 -5.504621
v -57.65877 14 -5.957776
v -56.86369 11.50001 -5.234951
v -56.82011 11.50001 -5.733048
v -56.86369 14 -5.234961
v -56.82011 14 -5.733059
v -55.82577 11.50001 -5.325758
v -55.95518 11.50001 -5.808721
v -55.82577 14 -5.325768
v -55.95518 14 -5.808732
v -59.58252 12.99999 -7.944599
v -59.49172 12.99999 -8.982522
v -58.88737 12.69999 -8.761978
v -58.96304 12.7 -8.192364
v -59.31286 13 -6.938212
v -58.73832 12.7 -7.353711
v -58.71526 13 -6.084745
v -58.24031 12.7 -6.642488
v -57.86179 13 -5.487142
v -57.52909 12.7 -6.144486
v -56.85541 13 -5.217482
v -56.69044 12.7 -5.919769
v -55.81748 13 -5.30829
v -56.07082 12.7 -5.995445
v -59.49586 12.6 -8.991258
v -59.58667 12.6 -7.953334
v -58.48812 12.6 -8.843462
v -58.38068 12.59999 -9.665805
v -59.31701 12.6 -6.946947
v -58.26341 12.6 -8.00481
v -58.71941 12.60001 -6.09348
v -57.7654 12.6 -7.293588
v -57.86594 12.60001 -5.495878
v -57.05418 12.6 -6.795585
v -56.85955 12.60001 -5.226217
v -56.21553 12.6 -6.570869
v -55.82163 12.60001 -5.317026
v -55.28069 12.6 -6.646544

vt 0 0
vt 0.180922 1.02606
vt 0.5 0
vt 0.6507685 0.8550503
vt -0.1809192 1.026058
vt -0.6507648 0.8550488
vt -0.4999965 -2.376377E-06
vt 0.7018666 1.928363
vt 1.084889 1.606969
vt -0.7018639 1.928361
vt -1.084884 1.606967
vt 1.5 2.598076
vt 1.75 2.165064
vt -1.499997 2.598074
vt -1.749997 2.165061
vt 2.479055 2.954423
vt 2.565879 2.462019
vt -2.479053 2.954421
vt -2.565875 2.462018
vt 3.520945 2.954423
vt 3.43412 2.462019
vt -3.52094 2.954421
vt -3.434117 2.462017
vt 4.5 2.598076
vt 4.25 2.165063
vt -4.499996 2.598074
vt -4.249996 2.165061
vt 0.4995823 1.042089
vt 1.499553 1.05918
vt 1.499976 0.0172921
vt -0.6611105 0.9156186
vt -0.6192262 0.04865414
vt -1.910662 0.08880048
vt -1.931313 0.6629508
vt 0.640045 1.658544
vt 0.4963717 0.4547785
vt -3.184812E-06 0.4739333
vt 0.01066169 1.41665
vt 0.4998343 0.9792887
vt 0.4993417 2.021178
vt 1.49933 2.040674
vt 1.499825 0.9987856
vt -0.8016297 1.834861
vt -0.6717727 0.9763861
vt -1.935265 0.6368065
vt -2.06512 1.495279
vt -1.777186 0.4992276
vt -2.819075 0.4992269
vt -2.838144 1.499225
vt -1.796253 1.499226
vt 2.73225 0.3480337
vt 1.864008 0.3480336
vt 1.785439 1.659579
vt 2.653682 1.659577
vt -2.298129 0.4956761
vt -3.340019 0.4956762
vt -3.35683 1.495652
vt -2.314941 1.495653
vt 3.253196 0.1207303
vt 2.384957 0.1207301
vt 2.384087 1.43597
vt 3.252327 1.43597
vt -2.479053 0.4897829
vt -3.520941 0.4897829
vt -3.533468 1.489726
vt -2.49158 1.489726
vt 3.434115 -0.1452293
vt 2.565873 -0.1452292
vt 2.642807 1.166297
vt 3.511049 1.166297
vt -2.298128 0.483058
vt -3.340019 0.4830579
vt -3.34675 1.482972
vt -2.30486 1.482972
vt 3.191661 -0.4770107
vt 2.323553 -0.4729027
vt 2.472045 0.825214
vt 3.096179 0.8280437
vt -1.470124 3.979467
vt -0.4702287 3.959161
vt -0.4718829 3.46735
vt -1.772912 3.274817
vt 2.99957 1.043104
vt 2.999992 0.001215073
vt 1.899985 0.009111843
vt 1.899562 1.051
vt -3.020814 -0.05032307
vt -3.062699 0.8166405
vt -2.107996 -0.04543058
vt -2.077704 -0.8740996
vt 0.4963744 2.82441
vt 1.014395 2.061252
vt 0.005326328 1.798359
vt 0 2.843565
vt 2.999335 2.022363
vt 2.999827 0.9804739
vt 1.899826 0.9894629
vt 1.899333 2.031352
vt -2.117493 0.09748889
vt -2.247348 0.9559594
vt -3.057302 0.6155429
vt -3.18716 1.474018
vt -1.777189 2.999221
vt -1.786719 1.899224
vt -2.828609 1.899223
vt -2.819079 2.999221
vt 2.732254 2.766015
vt 2.392732 1.949992
vt 1.524488 1.949992
vt 1.864012 2.766016
vt -3.348422 1.89566
vt -2.306533 1.895659
vt -3.340022 2.995665
vt -2.298133 2.995665
vt 3.253201 2.539511
vt 3.267895 1.736425
vt 2.399655 1.736425
vt 2.38496 2.539511
vt -3.527201 1.889747
vt -2.485314 1.889747
vt -3.520946 2.989763
vt -2.479056 2.989763
vt 3.434119 2.271891
vt 3.801261 1.454955
vt 2.93302 1.454954
vt 2.565877 2.271891
vt -2.298133 2.983031
vt -2.301491 1.883005
vt -3.343381 1.883004
vt -3.340022 2.983031
vt 3.191664 1.92986
vt 3.95007 1.07706
vt 3.012441 1.083145
vt 2.323556 1.933968
vt -2.971823 3.472904
vt -2.970169 3.964715
vt -1.870155 3.971313
vt -1.868973 2.689655

vn -8.046627E-07 -1 3.039837E-06
vn -2.502503E-07 1 -2.787568E-06
vn -0.9961472 -0.009776853 -0.08715008
vn 0.9893576 0.09288105 0.1089611
vn 0.9905773 0.1060459 0.08666381
vn 0.9881379 0.07971617 0.1312584
vn 0.321807 -0.04690888 -0.9456425
vn 0.2902982 -0.03082308 -0.9557319
vn 0.2587893 -0.01473728 -0.9658214
vn -0.9659199 -0.003479572 0.2588177
vn 0.9574288 0.13235 -0.2565418
vn -0.8191479 0.003237311 0.5735734
vn 0.8083402 0.1619256 -0.5660091
vn -0.5735496 0.00956502 0.819115
vn 0.5650039 0.172251 -0.8069079
vn -0.2587907 0.01473725 0.965821
vn 0.2553838 0.1623636 -0.9531092
vn 0.08714183 0.01813204 0.9960309
vn -0.1031052 0.1423821 -0.9842373
vn -0.08637965 0.1331857 -0.9873197
vn -0.1198307 0.1515786 -0.9811547
vn 0.9380206 0.001714626 -0.3465751
vn 0.9514003 -0.02348964 -0.3025436
vn 0.9647799 -0.04869391 -0.2585121
vn -0.9961849 0.004439983 -0.08715396
vn -0.9961203 0.01222959 -0.08714782
vn 0.8958111 -0.4331439 0.09766848
vn 0.8976884 -0.4335749 0.07853839
vn 0.8939338 -0.4327128 0.1167986
vn 0.2483228 0.9681342 0.03243487
vn 0.2492922 0.9678708 0.0328359
vn 0.2502617 0.9676076 0.03323694
vn -0.1171228 -0.148679 -0.8905198
vn -0.4930584 -0.3040525 -0.8151352
vn 0.2588128 0.006694586 -0.9659044
vn -0.05681449 0.4650838 -0.3646477
vn 0.4037821 0.9061224 0.1261038
vn -0.5174111 0.02404515 -0.8553991
vn -0.9659245 0.001579945 0.2588191
vn -0.9659166 0.004361128 0.2588168
vn 0.152069 0.9875295 -0.04075065
vn 0.7808987 -0.5885714 -0.2092386
vn -0.8191509 -0.001471123 0.5735762
vn -0.8191457 -0.004033306 0.5735713
vn 0.6127875 -0.6636147 -0.4290771
vn 0.106519 0.9915091 -0.07458818
vn -0.573535 -0.01194258 0.8190941
vn -0.5735704 -0.004345607 0.8191447
vn 0.4180983 -0.6845874 -0.5971047
vn 0.07064322 0.9923863 -0.1008906
vn -0.2587754 -0.01840867 0.9657621
vn -0.2588134 -0.006695616 0.9659042
vn 0.194495 -0.659763 -0.7258682
vn 0.03412465 0.9912699 -0.1273557
vn 0.08715329 -0.008236801 0.9961609
vn 0.08713457 -0.02265369 0.995939
vn -0.06841818 -0.5790731 -0.8123953
vn -0.06579863 -0.5787604 -0.8128389
vn -0.07103776 -0.5793859 -0.8119519
vn -0.01735225 0.9853775 -0.1692417
vn -0.02166534 0.9838995 -0.1774046
vn -0.01303916 0.9868554 -0.1610788
vn 0.9288362 -0.1360129 0.05200407
vn 0.9659244 -0.001578797 -0.2588192
vn 0.8917481 -0.270447 0.3628274
vn 0.9261185 -0.01782945 0.3768111
vn 0.3803577 0.4534604 0.01702972
vn -0.1654032 0.9247503 -0.3427517

g ControlPanel
usemtl ProBuilderDefault
f 3/3/1 4/4/1 2/2/1 1/1/1
f 7/6/2 8/7/2 6/1/2 5/5/2
f 4/4/1 10/9/1 9/8/1 2/2/1
f 12/11/2 7/6/2 5/5/2 11/10/2
f 10/9/1 14/13/1 13/12/1 9/8/1
f 16/15/2 12/11/2 11/10/2 15/14/2
f 14/13/1 18/17/1 17/16/1 13/12/1
f 20/19/2 16/15/2 15/14/2 19/18/2
f 18/17/1 22/21/1 21/20/1 17/16/1
f 24/23/2 20/19/2 19/18/2 23/22/2
f 22/21/1 26/25/1 25/24/1 21/20/1
f 28/27/2 24/23/2 23/22/2 27/26/2
f 5/28/3 6/3/3 30/30/3 29/29/3
f 8/32/5 7/31/4 32/34/6 31/33/4
f 30/38/8 6/37/9 8/36/8 31/35/7
f 11/40/10 5/39/10 29/42/10 33/41/10
f 34/46/11 32/45/11 7/44/11 12/43/11
f 35/49/12 15/48/12 11/47/12 33/50/12
f 12/52/13 16/51/13 36/54/13 34/53/13
f 35/58/14 37/57/14 19/56/14 15/55/14
f 36/61/15 16/60/15 20/59/15 38/62/15
f 37/66/16 39/65/16 23/64/16 19/63/16
f 38/69/17 20/68/17 24/67/17 40/70/17
f 41/73/18 27/72/18 23/71/18 39/74/18
f 40/77/19 24/76/20 28/75/19 42/78/21
f 42/82/23 28/81/24 27/80/23 41/79/22
f 2/83/25 44/86/25 43/85/25 1/84/25
f 44/86/26 29/29/26 30/30/26 43/85/26
f 3/87/27 46/90/29 45/89/27 4/88/28
f 46/90/31 31/33/32 32/34/31 45/89/30
f 1/94/35 43/93/33 46/92/34 3/91/33
f 43/93/38 30/38/36 31/35/37 46/92/36
f 9/95/39 47/98/39 44/97/39 2/96/39
f 47/98/40 33/41/40 29/42/40 44/97/40
f 45/99/41 32/45/41 34/46/41 48/100/41
f 4/101/42 45/99/42 48/100/42 10/102/42
f 13/106/43 49/105/43 47/104/43 9/103/43
f 49/105/44 35/49/44 33/50/44 47/104/44
f 10/110/45 48/109/45 50/108/45 14/107/45
f 48/109/46 34/53/46 36/54/46 50/108/46
f 51/111/47 37/57/47 35/58/47 49/112/47
f 17/113/48 51/111/48 49/112/48 13/114/48
f 14/118/49 50/117/49 52/116/49 18/115/49
f 50/117/50 36/61/50 38/62/50 52/116/50
f 53/119/51 39/65/51 37/66/51 51/120/51
f 21/121/52 53/119/52 51/120/52 17/122/52
f 18/126/53 52/125/53 54/124/53 22/123/53
f 52/125/54 38/69/54 40/70/54 54/124/54
f 25/130/55 55/129/55 53/128/55 21/127/55
f 55/129/56 41/73/56 39/74/56 53/128/56
f 22/134/59 54/133/57 56/132/58 26/131/57
f 54/133/62 40/77/60 42/78/61 56/132/60
f 26/135/63 56/138/65 55/137/63 25/136/64
f 56/138/67 42/82/68 41/79/67 55/137/66

